# xmcd CD database file
#
# Track frame offsets:
#	150
#	13000
#	25920
#	39910
#	53452
#	66700
#	80497
#	92392
#	104722
#	116305
#	128762
#	139910
#	153200
#	165280
#	178497
#	188967
#
# Disc length: 2659 seconds
#
# Revision: 1
# Processed by: cddbd v1.5.2PL0 Copyright (c) Steve Scherf et al.
# Submitted via: CDex 1.70beta2
#
DISCID=ce0a6110
DTITLE=Sons Of The Pioneers - Sons Of The Pioneers
DYEAR=1991
DGENRE=Western
TTITLE0=Way Out There
TTITLE1=Tumbling Tumbleweeds
TTITLE2=There's A Round-Up In The Sky
TTITLE3=When Our Old Age Pension Check Comes To Our Door
TTITLE4=Echoes From The Hills
TTITLE5=The Hills Of Old Wyomin'
TTITLE6=Ride Ranger Ride
TTITLE7=One More Ride
TTITLE8=Rye Whiskey
TTITLE9=Cool Water
TTITLE10=When The Moon Comes Over Sun Valley
TTITLE11=Private Buckaroo
TTITLE12=I Hang My Head and Cry
TTITLE13=Let Me Keep My Memories
TTITLE14=Sierra Nevada
TTITLE15=Somebody Bigger Than You And I
EXTD=YEAR: 1991
EXTT0=
EXTT1=
EXTT2=
EXTT3=
EXTT4=
EXTT5=
EXTT6=
EXTT7=
EXTT8=
EXTT9=
EXTT10=
EXTT11=
EXTT12=
EXTT13=
EXTT14=
EXTT15=
PLAYORDER=
